<svg width="209" height="57" viewBox="0 0 209 57" fill="none" xmlns="http://www.w3.org/2000/svg">
<g filter="url(#filter0_d_2_356)">
<path d="M70 40H75.6V29.08H76.64C77 29.92 77.32 30.52 77.72 31.12L83.68 40H90.28L82.44 28.56C86.68 27.64 89.16 24.92 89.16 20.48C89.16 15 85.32 11.92 79.04 11.96L70 12V40ZM75.6 24.04V17.04H78.72C81.76 17.04 83.48 18.28 83.48 20.52C83.48 22.8 81.76 24.04 78.72 24.04H75.6ZM91.6313 40H97.0313V28.6C97.0313 25 99.0713 23.44 101.351 23.44C104.031 23.44 105.831 25 105.831 28.6V40H111.231V27.28C111.231 22.04 107.791 18.72 103.311 18.72C100.191 18.72 98.1513 19.84 97.0313 22.08V10.8H91.6313V40ZM115.353 48.36C120.233 48.36 122.833 45.52 124.593 41.32L133.793 19.2H127.393L123.353 31.08C122.993 32.08 122.673 33.32 122.473 34.4C122.273 33.32 121.953 32.08 121.593 31.08L117.553 19.2H111.033L119.273 39.04L118.993 39.92C118.393 41.76 117.073 43.08 114.993 43.08C114.113 43.08 113.353 43 112.553 42.8L111.753 47.96C112.833 48.28 114.273 48.36 115.353 48.36ZM143.261 40H146.221V35.2H143.981C142.941 35.2 142.301 34.6 142.301 33.28V23.8H146.701V19.2H142.301V14.44L136.901 15V19.2H133.981V23.8H136.901V33.56C136.901 38.08 139.141 40 143.261 40ZM148.506 40H153.906V28.6C153.906 25 155.946 23.44 158.226 23.44C160.906 23.44 162.706 25 162.706 28.6V40H168.106V27.28C168.106 22.04 164.666 18.72 160.186 18.72C157.066 18.72 155.026 19.84 153.906 22.08V10.8H148.506V40ZM171.123 40H176.523V28.6C176.523 25 178.563 23.44 180.843 23.44C183.523 23.44 185.323 25 185.323 28.6V40H190.723V28.6C190.723 24.6 192.443 23.44 194.963 23.44C197.403 23.44 199.123 25 199.123 28.6V40H204.523V27.28C204.523 22.04 201.083 18.72 196.603 18.72C192.963 18.72 190.963 20.12 189.563 22.64C188.203 20.12 185.723 18.72 182.803 18.72C179.603 18.72 177.523 19.92 176.443 22.24V19.2H171.123V40Z" fill="#121212"/>
<path fill-rule="evenodd" clip-rule="evenodd" d="M24.2139 25.0374C23.6652 35.5241 14.8456 43.878 4 44V4C14.8456 4.12209 23.6652 12.4759 24.2139 22.9626C24.7553 12.6141 33.3512 4.34272 44 4.00915V43.991C33.3512 43.6574 24.7553 35.386 24.2139 25.0374Z" fill="#FF6428"/>
</g>
<defs>
<filter id="filter0_d_2_356" x="0" y="4" width="208.523" height="52.3601" filterUnits="userSpaceOnUse" color-interpolation-filters="sRGB">
<feFlood flood-opacity="0" result="BackgroundImageFix"/>
<feColorMatrix in="SourceAlpha" type="matrix" values="0 0 0 0 0 0 0 0 0 0 0 0 0 0 0 0 0 0 127 0" result="hardAlpha"/>
<feOffset dy="4"/>
<feGaussianBlur stdDeviation="2"/>
<feComposite in2="hardAlpha" operator="out"/>
<feColorMatrix type="matrix" values="0 0 0 0 0 0 0 0 0 0 0 0 0 0 0 0 0 0 0.25 0"/>
<feBlend mode="normal" in2="BackgroundImageFix" result="effect1_dropShadow_2_356"/>
<feBlend mode="normal" in="SourceGraphic" in2="effect1_dropShadow_2_356" result="shape"/>
</filter>
</defs>
</svg>
